<?xml version="1.0" standalone="no"?>
<!DOCTYPE svg PUBLIC "-//W3C//DTD SVG 20010904//EN"
 "http://www.w3.org/TR/2001/REC-SVG-20010904/DTD/svg10.dtd">
<svg version="1.0" xmlns="http://www.w3.org/2000/svg"
 width="1024.000000pt" height="1024.000000pt" viewBox="0 0 1024.000000 1024.000000"
 preserveAspectRatio="xMidYMid meet">

<g transform="translate(0.000000,1024.000000) scale(0.100000,-0.100000)"
fill="#cdcae0" stroke="#cdcae0">
<path d="M4825 9580 c-274 -24 -545 -73 -776 -140 -1122 -325 -2010 -1068
-2505 -2094 -209 -435 -337 -883 -390 -1371 -20 -180 -23 -613 -5 -785 56
-543 182 -985 412 -1440 165 -328 359 -614 593 -875 l45 -50 31 31 32 32 -85
101 c-508 598 -814 1280 -918 2041 -26 196 -37 670 -20 871 79 905 464 1765
1075 2396 374 388 791 673 1303 892 351 150 645 229 1048 282 139 18 220 23
445 23 292 1 424 -9 670 -50 359 -61 698 -171 1055 -343 403 -195 735 -430
1050 -746 305 -304 530 -614 720 -990 407 -805 529 -1709 350 -2591 -137 -672
-460 -1321 -912 -1830 -34 -40 -63 -76 -63 -81 0 -5 13 -21 28 -36 l29 -28 44
48 c319 344 596 799 782 1283 269 702 333 1474 186 2225 -145 738 -491 1418
-999 1963 -514 553 -1176 945 -1940 1151 -104 28 -371 78 -520 97 -146 18
-614 27 -765 14z"/>
<path d="M4894 9313 c3 -27 8 -76 12 -110 l6 -62 -44 -5 c-23 -3 -82 -8 -129
-11 l-87 -7 -5 39 c-4 21 -9 68 -12 106 l-7 67 -43 0 c-24 0 -46 -4 -49 -8 -2
-4 6 -123 19 -263 14 -139 25 -257 25 -261 0 -5 20 -8 44 -8 25 0 47 3 49 8 3
4 1 54 -5 111 -7 79 -6 106 3 111 6 4 55 11 108 15 53 3 106 9 117 12 20 4 22
0 28 -84 10 -134 13 -143 44 -143 15 0 36 3 47 6 20 5 20 5 2 237 -25 325 -18
297 -78 297 l-51 0 6 -47z"/>
<path d="M5497 9308 c-3 -24 -4 -44 -3 -46 2 -2 35 -7 72 -13 38 -6 74 -12 80
-14 8 -2 1 -65 -22 -202 -19 -109 -34 -206 -34 -215 0 -10 10 -20 23 -22 12
-3 34 -7 48 -10 25 -6 27 -3 33 42 23 157 60 378 65 384 3 4 39 2 79 -4 82
-13 92 -8 92 48 l0 30 -207 32 c-115 18 -211 32 -214 32 -4 0 -9 -19 -12 -42z"/>
<path d="M4147 9241 c-27 -9 -46 -19 -43 -21 2 -3 34 -117 71 -255 37 -137 68
-251 70 -253 5 -5 70 9 84 17 9 6 -5 71 -55 262 -37 140 -70 257 -73 260 -3 4
-28 -1 -54 -10z"/>
<path d="M6060 8988 c-45 -134 -85 -248 -87 -254 -2 -7 16 -19 42 -27 45 -16
46 -16 54 6 53 151 65 177 76 177 13 0 215 -69 224 -76 2 -1 -13 -51 -32 -109
l-36 -106 25 -9 c76 -29 63 -47 153 222 45 134 81 249 81 255 0 11 -59 43 -79
43 -4 0 -22 -47 -41 -105 -19 -58 -36 -105 -38 -105 -22 0 -232 85 -232 94 0
6 14 51 30 99 17 49 30 93 30 98 0 9 -18 18 -66 33 -20 6 -27 -10 -104 -236z"/>
<path d="M3813 9140 c-24 -11 -43 -25 -43 -32 1 -7 13 -96 29 -198 16 -102 27
-186 26 -188 -2 -2 -25 21 -51 50 -93 101 -219 233 -226 236 -3 2 -24 -6 -45
-17 l-39 -19 17 -149 c9 -81 20 -175 24 -208 l8 -60 -73 90 c-40 50 -100 120
-132 157 l-59 67 -45 -21 c-24 -12 -44 -24 -44 -27 0 -4 52 -67 116 -141 64
-74 146 -170 182 -212 l66 -77 48 27 c31 18 46 32 43 42 -2 8 -11 92 -20 185
-9 94 -18 176 -20 183 -9 26 13 7 87 -76 43 -48 102 -114 131 -147 l54 -59 44
19 c24 10 45 19 46 20 1 0 -13 124 -32 275 -19 151 -35 281 -35 288 0 15 -6
15 -57 -8z"/>
<path d="M6725 8773 c-54 -104 -111 -209 -127 -235 l-27 -48 22 -14 c57 -35
305 -176 311 -176 7 0 46 61 46 72 0 3 -54 37 -120 73 -66 37 -120 72 -120 77
0 17 52 108 62 108 12 0 148 -69 180 -91 l26 -19 21 36 c12 19 21 38 21 42 0
4 -47 32 -104 62 l-104 54 29 58 c16 32 32 58 36 58 3 0 58 -27 120 -60 63
-33 118 -58 122 -56 15 10 34 67 25 75 -8 7 -312 171 -318 171 -1 0 -46 -84
-101 -187z"/>
<path d="M4975 8679 c-619 -33 -1212 -249 -1710 -623 -387 -291 -715 -695
-918 -1134 -251 -540 -346 -1072 -292 -1633 41 -428 145 -774 348 -1154 432
-809 1256 -1406 2164 -1565 908 -160 1808 69 2516 640 130 105 364 337 463
460 364 451 584 992 655 1605 19 163 16 541 -5 700 -59 442 -210 869 -438
1243 -82 134 -93 151 -203 287 -336 420 -756 739 -1237 938 -192 80 -275 108
-460 152 -196 47 -373 73 -538 80 -74 3 -151 7 -170 9 -19 1 -98 -1 -175 -5z
m600 -118 c832 -135 1531 -572 2027 -1268 164 -230 315 -551 407 -866 145
-494 156 -1054 31 -1549 -116 -456 -303 -833 -583 -1169 -701 -843 -1766
-1237 -2843 -1053 -660 112 -1262 441 -1712 933 -833 912 -1008 2232 -445
3356 422 841 1238 1445 2170 1605 198 34 277 39 553 35 209 -2 292 -8 395 -24z"/>
<path d="M4474 8110 c-40 -10 -94 -30 -121 -43 -64 -33 -147 -108 -179 -162
l-25 -43 -94 5 c-82 5 -103 3 -177 -20 -167 -53 -330 -192 -406 -350 -53 -109
-65 -161 -66 -290 l-1 -108 -50 -25 c-123 -63 -212 -153 -275 -279 -61 -123
-75 -186 -74 -355 0 -102 5 -162 16 -204 l17 -59 -60 -71 c-121 -143 -188
-334 -176 -498 7 -85 30 -186 53 -231 14 -27 13 -33 -20 -111 -53 -123 -69
-217 -64 -366 4 -106 10 -139 37 -220 18 -52 48 -124 68 -159 67 -121 221
-258 343 -307 30 -12 39 -21 35 -32 -12 -33 -6 -239 10 -307 65 -283 307 -483
585 -485 l55 0 30 -51 c17 -28 62 -81 100 -118 121 -115 291 -181 466 -181
112 0 176 14 264 55 127 61 212 155 263 293 35 94 42 285 15 389 -16 60 -17
77 -7 107 23 65 37 197 31 290 -6 101 -26 205 -63 334 l-25 86 19 45 c43 101
50 177 56 596 6 422 -2 627 -30 726 -16 56 -16 62 1 112 28 81 32 270 8 373
-14 57 -17 88 -10 105 22 58 47 214 53 329 7 134 -7 247 -45 368 -19 61 -19
63 1 125 30 97 44 268 30 373 -12 91 -49 185 -97 248 -85 112 -307 164 -491
116z m298 -120 c138 -51 203 -207 178 -428 -6 -51 -22 -129 -36 -173 l-27 -79
22 -52 c50 -125 69 -360 41 -518 -17 -99 -13 -98 -85 -32 -36 32 -93 73 -127
90 -82 40 -200 72 -263 71 l-50 0 55 -15 c109 -28 199 -82 286 -168 98 -98
136 -167 160 -292 34 -184 -2 -342 -91 -391 -22 -12 -109 -38 -193 -58 -136
-32 -345 -94 -267 -79 17 3 129 9 250 13 180 6 226 11 253 25 19 10 35 16 37
14 13 -13 25 -196 25 -383 l0 -224 -77 77 c-96 95 -174 136 -360 188 -152 42
-221 78 -263 135 -61 84 -94 250 -79 399 4 41 6 76 4 78 -1 1 -15 -37 -31 -85
-25 -77 -29 -103 -29 -208 0 -152 17 -213 79 -282 59 -65 135 -104 281 -143
173 -47 249 -85 323 -164 89 -96 129 -184 143 -316 10 -88 9 -118 -4 -181 -26
-130 -49 -170 -133 -235 -97 -73 -190 -176 -233 -254 l-34 -62 89 73 c88 71
245 179 263 179 12 0 58 -190 71 -296 12 -100 2 -223 -26 -306 -31 -95 -161
-206 -303 -259 -85 -31 -82 -34 22 -18 89 14 166 42 234 85 l51 33 7 -26 c3
-14 6 -71 6 -127 0 -216 -84 -347 -270 -417 -201 -76 -486 10 -612 185 l-29
39 92 49 92 49 35 -35 c47 -44 105 -73 198 -97 104 -26 109 -24 33 14 -73 36
-153 110 -199 183 -68 106 -89 258 -52 374 15 49 20 55 42 52 104 -13 181 -13
237 2 62 16 199 73 191 80 -2 2 -35 -3 -74 -11 -105 -22 -235 -14 -307 19
-109 51 -191 168 -222 320 -9 42 -17 90 -17 105 l-1 28 -8 -30 c-14 -54 -11
-208 5 -270 9 -33 31 -87 48 -120 l33 -60 -25 -60 c-33 -80 -41 -239 -16 -334
20 -77 15 -85 -78 -127 -56 -25 -73 -28 -167 -28 -83 0 -119 4 -173 23 -209
71 -337 271 -337 528 0 55 2 102 5 105 3 3 23 2 43 -3 20 -4 54 -11 75 -14 50
-8 257 -147 320 -214 27 -29 62 -80 77 -114 28 -60 29 -60 24 -22 -19 142 -75
227 -247 372 -140 119 -182 221 -175 424 l3 101 -19 -43 c-47 -107 -59 -226
-32 -327 15 -61 17 -60 -78 -36 -279 72 -476 346 -476 661 0 99 17 184 54 267
l25 56 74 -6 c43 -4 81 -3 92 3 15 9 9 15 -45 44 -73 39 -104 76 -137 165 -62
171 -26 372 94 528 61 80 60 80 152 -3 70 -63 81 -78 81 -106 0 -89 84 -252
153 -297 25 -17 25 -16 -13 65 -53 116 -65 172 -64 317 1 127 26 265 61 334
28 54 -7 15 -46 -52 -33 -56 -59 -120 -78 -191 -2 -10 -24 5 -64 45 -80 79
-101 141 -102 309 -1 137 16 222 64 322 39 82 132 181 207 221 l59 31 47 -73
c57 -90 140 -170 226 -215 l65 -34 -53 48 c-155 140 -242 371 -213 566 37 244
279 469 504 469 82 0 147 -32 216 -105 49 -52 61 -78 42 -89 -19 -12 -62 -142
-72 -219 -10 -78 -13 -84 -59 -132 -26 -27 -59 -71 -74 -96 -28 -49 -56 -160
-55 -219 l0 -35 13 35 c66 178 195 313 341 356 46 13 82 15 160 11 92 -4 133
-14 270 -63 34 -12 -47 46 -107 77 -32 16 -84 36 -115 44 -65 17 -192 20 -242
5 l-34 -9 7 45 c8 61 48 143 93 189 20 21 66 52 102 69 62 29 72 31 186 31 98
0 126 -3 155 -19 l35 -19 -23 26 c-32 34 -105 64 -191 79 -81 14 -184 1 -251
-31 l-38 -18 -67 67 -68 68 21 34 c47 75 156 145 263 168 63 13 178 4 241 -20z"/>
<path d="M3811 7375 c-22 -84 -26 -300 -7 -375 40 -158 128 -275 250 -333 31
-15 59 -27 63 -27 3 0 -28 35 -68 78 -134 139 -205 328 -218 577 l-7 130 -13
-50z"/>
<path d="M4220 6585 c-79 -16 -177 -54 -240 -95 -53 -34 -157 -139 -185 -187
-23 -39 -31 -41 -39 -9 -11 45 -93 140 -150 175 -53 32 -173 81 -198 81 -7 0
9 -13 35 -30 101 -64 189 -168 223 -262 30 -86 34 -132 18 -225 -12 -63 -15
-129 -11 -233 5 -165 27 -267 83 -389 19 -41 33 -75 32 -76 -2 -1 -25 -10 -53
-20 -114 -41 -240 -117 -318 -189 -31 -29 -42 -34 -57 -26 -34 18 -89 93 -107
144 -23 70 -23 181 1 226 l19 35 -23 -20 c-61 -54 -97 -175 -80 -265 15 -76
35 -116 91 -175 l52 -55 -31 -79 c-40 -99 -50 -148 -57 -258 l-6 -88 34 85
c110 279 224 420 427 525 142 73 241 97 398 99 113 1 129 3 105 13 -28 12
-123 34 -217 50 -47 8 -51 11 -82 68 -76 137 -110 299 -100 480 12 237 95 403
255 509 111 74 188 100 301 100 74 0 107 -5 151 -22 70 -28 164 -88 226 -144
l47 -43 -25 45 c-34 63 -149 182 -207 213 -59 32 -152 57 -207 56 -22 0 -69
-7 -105 -14z"/>
<path d="M4575 5222 c-116 -40 -217 -123 -275 -226 -23 -41 -38 -56 -53 -56
-12 0 -60 -9 -107 -20 -172 -42 -304 -129 -357 -238 -23 -46 -28 -70 -28 -132
0 -65 4 -84 33 -142 18 -36 43 -73 55 -81 l24 -15 -20 39 c-27 56 -27 178 1
241 43 97 174 187 332 228 40 10 77 17 80 15 4 -3 10 -25 13 -50 15 -103 83
-187 185 -225 73 -27 82 -25 35 9 -96 69 -151 187 -140 301 11 123 116 269
242 337 66 36 58 42 -20 15z"/>
<path d="M5553 8105 c-130 -35 -216 -103 -270 -213 -36 -72 -38 -82 -42 -189
-3 -120 15 -258 49 -362 17 -51 17 -55 1 -95 -37 -85 -46 -148 -45 -301 1
-156 14 -282 39 -378 11 -42 12 -64 4 -84 -36 -95 -40 -279 -9 -391 19 -70 20
-76 4 -130 -14 -47 -18 -136 -24 -512 -4 -259 -4 -502 1 -564 8 -91 43 -298
54 -316 2 -3 -12 -63 -30 -133 -63 -239 -69 -391 -21 -543 16 -48 22 -83 17
-93 -29 -55 -40 -276 -20 -373 59 -281 369 -445 696 -367 142 34 297 143 377
267 l41 63 80 3 c218 11 417 141 512 336 48 98 68 168 85 302 9 77 9 99 -1
111 -14 18 -69 39 -75 29 -2 -4 -9 -47 -15 -97 -32 -267 -136 -441 -315 -529
-90 -45 -206 -65 -283 -49 l-52 10 -36 -75 c-70 -141 -206 -243 -370 -277 -88
-18 -125 -19 -218 -1 -147 28 -248 99 -304 214 -26 53 -28 65 -28 182 0 94 5
141 19 190 25 84 24 101 -9 190 -48 129 -38 283 36 533 l29 97 -19 78 c-49
192 -65 394 -40 514 23 110 103 218 161 218 19 0 31 -15 63 -77 39 -74 89
-143 105 -143 4 0 19 9 34 21 24 19 25 22 11 42 -19 27 -19 100 -1 161 22 72
1 108 -79 142 -86 36 -188 15 -270 -57 l-35 -31 0 158 c0 146 12 283 26 305 3
6 14 -1 24 -13 10 -13 31 -31 47 -40 l28 -16 -4 76 c-3 70 -6 80 -36 113 -66
74 -100 232 -75 354 17 84 62 174 111 223 40 39 43 45 40 91 -4 83 45 167 116
197 51 22 105 17 166 -15 31 -16 57 -28 59 -28 2 1 2 0 1 -2 -2 -2 19 -28 47
-57 27 -28 63 -81 81 -116 l31 -64 80 -16 c84 -18 189 -62 248 -105 l35 -25
-30 28 c-27 26 -155 97 -180 100 -22 2 -45 17 -40 24 3 5 -3 13 -12 19 -10 6
-15 11 -10 11 4 0 15 -5 26 -11 13 -9 22 -9 37 0 18 12 18 12 -3 8 -13 -3 -23
-1 -23 4 0 5 9 9 20 9 20 0 29 19 10 21 -5 1 -14 3 -20 4 -5 1 -12 3 -15 4 -3
0 1 14 10 30 8 17 12 37 9 46 -4 9 0 21 9 28 8 7 17 26 20 42 3 17 9 39 13 49
5 12 4 17 -3 13 -5 -3 -10 0 -10 8 0 8 5 15 10 15 5 0 7 8 4 19 -3 14 0 17 14
14 13 -4 19 0 19 10 0 22 -20 32 -31 16 -7 -11 -9 -10 -9 4 0 13 6 17 23 15
22 -3 22 -2 26 54 1 11 6 15 16 12 8 -4 15 -1 15 6 0 6 -5 8 -12 4 -8 -5 -9
-2 -3 12 4 10 10 34 13 53 3 25 7 30 14 20 7 -10 8 -5 3 14 -3 17 -2 26 4 23
5 -3 7 2 5 11 -2 10 0 32 5 48 6 18 10 23 10 11 1 -12 6 -16 16 -12 10 4 15
-1 15 -14 0 -11 5 -20 10 -20 6 0 8 11 4 25 -5 21 -3 25 15 25 14 0 21 6 21
20 0 20 32 41 85 55 17 5 37 10 45 12 8 2 29 6 46 7 38 4 57 15 72 41 6 11 12
14 12 7 0 -7 5 -10 12 -6 7 4 8 3 4 -4 -4 -7 -2 -12 4 -12 6 0 8 -4 5 -10 -3
-5 -2 -10 4 -10 6 0 15 -15 21 -32 10 -32 10 -32 4 7 -17 114 -104 188 -185
155 -32 -14 -64 -63 -55 -86 3 -8 1 -14 -4 -14 -6 0 -9 -5 -7 -11 1 -6 -4 -13
-11 -15 -7 -1 -8 0 -2 3 7 3 4 10 -7 19 -17 13 -17 14 2 7 16 -5 18 -4 9 8 -7
8 -22 42 -34 76 -13 36 -27 60 -33 56 -5 -3 -7 -1 -4 5 10 15 -3 43 -16 35 -6
-3 -7 -1 -3 6 9 14 -12 43 -25 35 -5 -3 -8 0 -7 7 5 22 -58 50 -112 51 -73 0
-120 -38 -120 -97 0 -8 36 -56 80 -108 43 -51 84 -106 90 -121 15 -40 12 -153
-5 -221 -21 -78 -56 -125 -95 -125 -71 0 -108 42 -136 154 -32 128 -92 169
-244 170 -121 0 -193 -26 -260 -93 -87 -87 -108 -231 -42 -296 l25 -25 -17
-58 c-9 -32 -16 -68 -16 -80 0 -18 -74 -100 -100 -110 -8 -3 -26 122 -36 248
-12 163 27 304 109 388 160 166 522 171 663 9 34 -39 36 -40 18 -8 -10 18 -37
48 -59 66 -46 38 -154 92 -202 101 -31 6 -32 7 -17 30 9 13 18 50 21 82 4 46
1 66 -15 99 -35 68 -132 101 -203 69 -11 -5 -19 1 -27 19 -16 34 -69 65 -114
65 -51 0 -101 -45 -125 -113 -13 -39 -18 -82 -18 -169 0 -64 -1 -115 -3 -113
-11 11 -31 175 -32 252 0 117 22 182 85 246 115 116 291 136 462 52 67 -33
183 -126 183 -146 0 -5 -11 -16 -25 -25 -25 -16 -26 -15 -89 43 -129 121 -290
165 -370 102 -31 -25 -34 -66 -7 -100 16 -20 30 -23 127 -29 124 -8 167 -23
215 -77 37 -43 50 -74 42 -103 -13 -49 19 -38 86 30 102 104 204 132 346 95
206 -54 362 -254 406 -520 8 -50 8 -50 4 11 -2 33 -8 69 -11 79 -5 13 -4 16 4
11 11 -7 13 -2 16 46 1 9 4 19 7 22 4 4 5 -8 4 -27 -2 -18 4 -44 12 -57 l14
-25 -4 28 c-2 15 1 30 7 34 6 3 8 3 4 -2 -4 -4 -3 -13 2 -20 5 -6 14 -29 20
-51 l10 -39 -6 45 c-7 66 -24 121 -34 115 -4 -3 -6 3 -4 12 6 25 -54 146 -110
220 -81 107 -196 188 -311 218 -59 15 -180 19 -224 6 -20 -5 -35 6 -100 69
-123 122 -259 181 -417 179 -44 0 -103 -7 -131 -14z m958 -668 c-10 -9 -11 -8
-5 6 3 10 9 15 12 12 3 -3 0 -11 -7 -18z m4 -57 c-10 -11 -22 -20 -28 -20 -5
0 1 9 14 20 31 25 37 25 14 0z m9 -28 c2 -4 -5 -9 -17 -9 -17 -2 -19 0 -7 7
18 12 18 12 24 2z m-287 -356 c0 -8 -6 -12 -14 -9 -7 3 -10 9 -7 14 8 14 21
11 21 -5z m-127 -391 c0 -2 -9 -3 -19 -2 -11 0 -18 5 -15 9 4 6 34 0 34 -7z"/>
<path d="M6971 7439 c-37 -74 -40 -118 -8 -154 22 -26 108 -51 93 -27 -3 6
-15 9 -26 7 -21 -4 -27 9 -10 20 6 3 10 1 10 -6 0 -7 3 -10 6 -6 3 3 17 2 29
-3 18 -7 29 -5 42 8 10 9 14 14 9 10 -21 -17 -67 -7 -93 18 -30 30 -24 43 9
20 12 -9 27 -16 33 -16 5 1 -3 8 -18 16 -15 8 -25 19 -22 24 3 5 0 12 -6 16
-8 4 -9 3 -5 -4 9 -15 1 -15 -26 -1 -16 9 -19 8 -13 -2 6 -8 4 -10 -5 -4 -8 5
-11 4 -6 -3 4 -6 13 -9 21 -5 11 3 13 1 9 -10 -7 -19 -37 -15 -40 6 -1 9 4 24
12 34 8 11 13 13 14 6 0 -7 4 -13 9 -13 5 0 7 9 4 19 -3 13 -11 18 -21 14 -14
-5 -15 -4 -4 8 11 12 16 11 29 -6 15 -20 15 -20 9 1 -11 37 18 34 50 -5 17
-20 39 -49 49 -64 10 -15 20 -25 23 -22 3 3 -14 27 -37 55 -23 27 -53 68 -65
91 l-24 41 -31 -63z m39 1 c-18 -11 -24 -6 -16 16 5 14 9 15 19 5 9 -9 9 -14
-3 -21z m-4 -135 c8 -7 9 -14 2 -22 -15 -18 -24 -16 -41 11 -15 22 -15 23 6
22 12 0 27 -5 33 -11z"/>
<path d="M6647 7359 c-8 -28 -3 -34 11 -16 6 7 7 19 3 26 -6 9 -10 6 -14 -10z"/>
<path d="M7430 7272 c0 -4 -19 -7 -42 -6 -43 1 -43 1 -4 -3 l39 -4 -34 -35
c-18 -19 -31 -34 -28 -34 3 0 25 20 49 45 24 25 39 45 32 45 -7 0 -12 -3 -12
-8z"/>
<path d="M6723 7225 c0 -22 2 -30 4 -17 2 12 2 30 0 40 -3 9 -5 -1 -4 -23z"/>
<path d="M7263 7243 c9 -2 23 -2 30 0 6 3 -1 5 -18 5 -16 0 -22 -2 -12 -5z"/>
<path d="M6893 7195 c0 -22 2 -30 4 -17 2 12 2 30 0 40 -3 9 -5 -1 -4 -23z"/>
<path d="M7228 7213 c7 -3 16 -2 19 1 4 3 -2 6 -13 5 -11 0 -14 -3 -6 -6z"/>
<path d="M6972 7184 c10 -10 20 -16 22 -13 3 3 -5 11 -17 18 -21 13 -21 12 -5
-5z"/>
<path d="M7329 7173 c-13 -16 -12 -17 4 -4 9 7 17 15 17 17 0 8 -8 3 -21 -13z"/>
<path d="M6416 7085 c-9 -26 -7 -32 5 -12 6 10 9 21 6 23 -2 3 -7 -2 -11 -11z"/>
<path d="M6381 6974 c0 -11 3 -14 6 -6 3 7 2 16 -1 19 -3 4 -6 -2 -5 -13z"/>
<path d="M6363 6840 c0 -25 2 -35 4 -22 2 12 2 32 0 45 -2 12 -4 2 -4 -23z"/>
<path d="M5676 6830 c-70 -22 -97 -73 -97 -188 0 -103 20 -175 85 -307 l44
-89 -53 -59 c-80 -88 -117 -165 -123 -253 -4 -65 -1 -79 25 -137 17 -35 47
-80 67 -100 72 -73 196 -115 302 -103 131 13 113 23 152 -84 26 -70 35 -113
36 -162 1 -61 -2 -69 -29 -98 -34 -36 -84 -53 -140 -48 -40 4 -40 4 -13 15 42
18 62 56 55 105 -8 59 -45 93 -102 93 -130 0 -145 -178 -18 -231 42 -18 125
-18 166 0 39 16 82 61 96 99 23 61 0 222 -44 307 -14 26 -13 28 29 57 103 73
102 210 -1 244 -84 27 -167 6 -223 -57 -40 -46 -40 -84 1 -119 17 -14 33 -24
35 -22 2 2 -6 22 -18 45 -23 41 -20 70 8 79 13 4 111 -184 101 -194 -5 -4 -39
-8 -75 -8 -107 0 -226 66 -268 147 -22 42 -21 141 0 193 16 37 91 125 107 125
4 0 23 -26 43 -57 28 -47 36 -54 42 -40 4 11 -5 38 -24 74 l-30 56 59 70 c33
39 71 95 87 126 24 51 27 66 27 166 0 102 -2 115 -31 175 -17 36 -43 80 -58
98 -56 66 -154 103 -220 82z m170 -69 c72 -44 85 -190 27 -313 -32 -66 -141
-195 -153 -181 -12 14 -78 185 -91 236 -17 70 -8 158 21 200 49 71 134 96 196
58z m224 -896 c38 -19 50 -43 50 -96 0 -35 -6 -49 -32 -76 l-31 -32 -34 77
c-57 129 -56 122 -30 132 32 13 44 12 77 -5z"/>
<path d="M5710 6702 c-24 -25 -51 -105 -38 -117 2 -2 26 2 53 10 26 8 65 15
87 15 42 0 46 8 28 69 -12 41 -24 51 -68 51 -24 0 -42 -8 -62 -28z"/>
<path d="M5763 6509 c-35 -4 -67 -10 -72 -14 -11 -6 28 -125 41 -125 4 0 13
10 19 22 7 13 22 30 34 40 21 16 52 75 44 81 -2 2 -32 0 -66 -4z"/>
<path d="M7450 6480 l-24 -100 -41 0 c-68 0 -111 -46 -66 -70 24 -12 71 -13
90 -1 8 5 21 40 31 77 9 37 21 69 28 72 6 2 23 -8 37 -22 17 -17 25 -20 25
-11 0 8 -13 27 -30 42 -30 26 -40 53 -19 53 6 0 29 -17 50 -39 52 -51 50 -23
-1 33 -22 24 -40 48 -40 55 0 6 -4 11 -8 11 -5 0 -19 -45 -32 -100z"/>
<path d="M6034 6443 c-2 -86 -40 -184 -97 -250 -22 -26 -47 -55 -54 -64 -11
-14 -10 -23 6 -63 19 -43 22 -46 48 -39 16 5 57 8 93 7 104 -1 179 -50 204
-133 l12 -41 22 20 c12 12 19 26 16 32 -4 7 -2 8 5 4 18 -11 64 99 68 164 4
65 -9 96 -56 127 -24 16 -49 23 -82 23 -61 0 -84 -20 -93 -84 -8 -52 -20 -57
-60 -25 -35 27 -35 76 -1 117 44 53 70 57 227 40 9 -1 15 -5 12 -9 -6 -10 52
-50 60 -42 3 3 6 11 6 17 0 6 -4 4 -10 -4 -8 -12 -10 -12 -16 3 -3 9 -10 14
-15 11 -5 -3 -6 2 -2 11 4 12 8 13 13 4 6 -8 11 -5 20 11 8 14 8 20 1 16 -7
-5 -8 -1 -5 9 6 13 11 11 33 -12 14 -16 19 -20 11 -9 -78 110 -203 192 -335
220 l-30 6 -1 -67z m321 -113 c3 -6 -1 -7 -9 -4 -18 7 -21 14 -7 14 6 0 13 -4
16 -10z"/>
<path d="M5526 6419 c-51 -60 -61 -89 -61 -179 0 -63 5 -97 19 -127 l19 -42
39 57 c22 31 53 71 69 88 l29 30 -41 100 c-23 54 -43 100 -44 102 -1 2 -14
-11 -29 -29z"/>
<path d="M6412 6425 c15 -16 29 -27 31 -24 3 2 -10 15 -27 28 l-31 24 27 -28z"/>
<path d="M5745 5986 c-21 -32 -35 -83 -35 -127 0 -43 36 -116 68 -137 22 -14
22 -14 12 12 -15 42 -12 116 9 161 18 40 18 40 -7 78 -14 20 -26 37 -28 37 -2
0 -11 -11 -19 -24z"/>
<path d="M6371 5943 c-10 -26 -10 -27 4 -9 8 11 15 23 15 28 0 15 -7 8 -19
-19z"/>
<path d="M6297 5851 c-32 -33 -57 -67 -57 -77 0 -28 -37 -97 -71 -132 l-31
-32 28 -100 c27 -97 29 -100 61 -106 81 -15 179 36 228 120 27 46 66 182 64
225 0 14 -7 -5 -15 -43 -7 -38 -15 -71 -18 -74 -11 -10 -38 9 -32 23 3 8 1 17
-3 20 -5 2 -12 21 -16 42 -5 26 -9 33 -15 23 -12 -19 -22 -7 -22 26 0 15 -9
35 -20 46 -15 15 -17 22 -7 34 12 14 6 28 -12 30 -5 1 -12 2 -15 3 -4 0 -1 8
6 16 30 36 -2 10 -53 -44z m66 16 c4 3 7 1 7 -5 0 -17 -16 -15 -31 6 -12 15
-12 16 2 5 9 -7 19 -10 22 -6z"/>
<path d="M5501 5706 c-6 -25 -11 -56 -11 -70 0 -25 2 -26 63 -26 79 0 164 -39
227 -104 44 -46 45 -46 110 -46 37 0 89 -7 115 -15 27 -8 51 -12 53 -10 3 2
-9 28 -25 57 l-30 53 -99 1 c-72 1 -113 7 -150 21 -76 30 -160 89 -196 139
-17 24 -35 44 -39 44 -3 0 -12 -20 -18 -44z"/>
<path d="M6536 5466 c-10 -16 -12 -27 -6 -31 6 -4 9 -3 8 2 -1 4 3 18 10 31
17 30 8 28 -12 -2z"/>
<path d="M6495 5410 c-16 -18 -15 -19 27 -25 23 -3 72 -5 108 -3 l65 4 -72 2
c-40 1 -73 6 -73 12 0 5 -8 14 -19 19 -14 8 -22 6 -36 -9z m40 -8 c-3 -3 -11
0 -18 7 -9 10 -8 11 6 5 10 -3 15 -9 12 -12z"/>
<path d="M7110 5338 c0 -13 -9 -42 -20 -66 -11 -23 -14 -40 -8 -36 8 5 9 -2 4
-22 -5 -24 -4 -26 5 -11 6 10 8 25 5 34 -4 8 -2 21 3 27 12 14 26 96 17 96 -3
0 -6 -10 -6 -22z"/>
<path d="M6785 5324 c-11 -9 -35 -23 -53 -31 l-34 -14 39 -28 c21 -16 53 -45
72 -64 l34 -36 38 19 c44 23 54 36 37 46 -7 4 -10 4 -6 -1 11 -11 -29 -38 -44
-29 -7 4 -8 3 -4 -4 4 -7 2 -12 -3 -12 -6 0 -11 4 -11 9 0 5 -14 14 -31 20
-19 7 -28 15 -23 22 4 7 3 9 -4 5 -6 -3 -13 -2 -16 3 -4 5 -2 12 4 16 7 4 5
14 -5 28 -14 20 -13 23 13 44 30 25 28 31 -3 7z m-20 -51 c8 -21 7 -23 -2 -22
-5 1 -7 6 -5 11 2 6 -4 8 -12 5 -9 -4 -18 -1 -22 5 -4 7 -3 8 4 4 7 -4 12 -2
12 3 0 17 17 13 25 -6z m76 -100 c13 -16 12 -17 -3 -4 -10 7 -18 15 -18 17 0
8 8 3 21 -13z"/>
<path d="M6176 5266 c-9 -36 -62 -93 -110 -119 -33 -17 -58 -22 -128 -22 -83
0 -88 -1 -120 -31 -42 -40 -58 -45 -101 -33 -33 9 -87 59 -130 119 -17 25 -17
24 -11 -46 7 -90 -7 -145 -48 -179 -24 -20 -40 -26 -65 -23 -32 4 -33 3 -33
-35 0 -53 26 -150 56 -208 30 -61 75 -106 167 -168 78 -53 114 -96 146 -178
25 -63 16 -68 -19 -12 -14 22 -40 52 -59 66 -35 27 -182 93 -207 93 -23 0 -51
-74 -78 -212 -64 -313 -5 -505 186 -605 47 -25 64 -28 146 -28 l92 0 -42 -18
c-24 -11 -86 -28 -138 -38 -113 -23 -159 -45 -183 -87 -57 -98 7 -210 127
-220 45 -4 62 0 103 22 69 38 288 229 350 306 90 113 174 134 275 70 128 -81
139 -85 213 -85 82 0 139 26 189 88 40 50 48 144 17 194 -49 78 -135 86 -268
24 -96 -44 -128 -49 -158 -27 -17 12 -18 18 -7 66 17 74 15 107 -9 131 -18 18
-30 21 -79 17 -49 -3 -67 -11 -123 -52 -174 -124 -340 -165 -454 -112 -55 26
-73 49 -73 93 0 66 59 113 143 113 36 0 35 -17 -2 -25 -65 -14 -83 -87 -27
-113 96 -46 329 75 391 203 27 55 32 169 11 233 -21 62 -76 127 -121 144 -20
6 -34 17 -32 23 5 14 100 12 105 -3 2 -6 10 -8 18 -5 8 3 14 -1 14 -11 0 -9 7
-16 15 -16 8 0 15 -5 15 -11 0 -5 5 -7 10 -4 6 3 10 -1 10 -9 0 -9 5 -16 11
-16 6 0 8 -9 4 -20 -5 -16 -3 -19 11 -13 13 5 15 2 9 -16 -4 -15 -3 -21 7 -19
8 2 12 -4 10 -14 -2 -10 1 -18 6 -18 4 0 9 -31 10 -68 3 -73 -16 -133 -60
-195 l-21 -30 34 6 c19 4 104 14 189 22 85 9 175 21 199 26 101 22 177 83 225
181 30 59 36 81 36 135 0 103 -36 148 -148 183 l-57 18 45 1 c25 0 63 -8 85
-18 44 -20 134 -112 166 -170 l20 -36 -5 140 c-4 151 -22 224 -83 338 -36 66
-161 192 -235 236 -97 56 -220 93 -329 99 l-96 5 -7 -27z m291 -161 c30 -33
64 -131 57 -160 -12 -50 -93 -72 -118 -32 -16 26 12 70 52 82 38 11 39 16 10
50 -22 25 -24 25 -80 14 -32 -7 -58 -15 -58 -18 0 -3 7 -31 15 -61 21 -80 19
-105 -11 -129 -30 -24 -86 -28 -103 -7 -25 30 27 96 75 96 20 0 21 3 13 38 -4
20 -15 59 -23 87 -9 27 -13 51 -10 54 8 9 106 19 134 14 14 -2 35 -15 47 -28z
m-642 -75 c10 -11 22 -20 26 -20 27 0 118 -54 128 -76 21 -47 11 -113 -24
-147 -13 -13 -14 -21 -5 -38 18 -33 6 -32 -19 1 -19 27 -20 31 -6 37 9 3 21
17 26 32 9 21 7 29 -11 43 -12 10 -37 18 -56 18 -40 0 -40 -4 -19 -100 28
-128 16 -169 -60 -194 -71 -25 -104 8 -70 70 18 35 85 71 106 58 9 -5 10 -2 6
10 -9 22 -57 284 -57 308 0 24 12 23 35 -2z m305 -330 c0 -5 -5 -10 -11 -10
-5 0 -7 5 -4 10 3 6 8 10 11 10 2 0 4 -4 4 -10z m97 -3 c-10 -7 -26 -18 -35
-25 -15 -11 -14 -12 7 -6 15 4 21 2 17 -4 -4 -7 4 -8 26 -1 43 12 43 12 27 -8
-13 -15 -12 -15 8 -5 30 17 38 15 22 -5 -13 -15 -11 -16 11 -10 l25 6 -25 -21
-25 -21 29 7 c26 6 28 5 17 -8 -12 -14 -10 -16 14 -16 28 0 28 0 9 -21 -18
-20 -18 -20 8 -14 27 7 32 -4 15 -32 -6 -9 -1 -13 14 -13 21 0 22 -1 4 -20
-16 -18 -16 -20 -2 -20 20 0 23 -16 5 -23 -8 -3 -6 -6 5 -6 9 -1 17 -5 17 -11
0 -5 -8 -14 -17 -19 -17 -10 -17 -10 0 -11 9 0 17 -4 17 -10 0 -5 -8 -10 -17
-10 -14 -1 -13 -4 6 -14 22 -12 20 -13 -35 -24 -74 -15 -83 -15 -60 3 17 13
18 15 3 15 -9 0 -17 5 -17 10 0 6 6 10 14 10 8 0 17 4 20 9 4 5 -3 7 -14 4
-27 -7 -25 5 3 17 l22 9 -23 0 c-27 1 -21 18 12 32 16 7 14 8 -11 3 -38 -7
-43 7 -10 30 l22 16 -26 -6 c-40 -9 -44 13 -7 37 18 12 26 19 18 16 -8 -2 -25
-7 -37 -11 -28 -9 -40 11 -17 29 17 12 16 13 -9 8 -16 -3 -27 -1 -27 6 0 6 5
11 10 11 6 0 10 4 10 10 0 5 -14 7 -32 3 -31 -6 -32 -5 -18 12 14 17 13 17 -9
10 -20 -6 -23 -4 -18 9 6 14 3 16 -16 11 -22 -6 -22 -6 -2 10 19 16 19 16 -7
10 -45 -11 -32 3 25 29 56 26 84 33 54 13z m23 -17 c-8 -5 -19 -10 -25 -10 -5
0 -3 5 5 10 8 5 20 10 25 10 6 0 3 -5 -5 -10z"/>
<path d="M5832 4952 c2 -11 19 -19 47 -24 24 -4 54 -14 67 -23 13 -8 24 -12
24 -7 0 19 -48 51 -93 60 -42 9 -48 8 -45 -6z"/>
<path d="M7345 5250 c47 -55 48 -56 37 -35 -6 11 -23 31 -39 45 l-28 25 30
-35z"/>
<path d="M6959 5233 l-24 -28 28 24 c15 14 27 26 27 28 0 8 -8 1 -31 -24z"/>
<path d="M7163 5195 c0 -8 2 -15 4 -15 3 0 11 7 19 15 14 13 13 15 -4 15 -10
0 -19 -7 -19 -15z"/>
<path d="M7223 5203 c9 -2 23 -2 30 0 6 3 -1 5 -18 5 -16 0 -22 -2 -12 -5z"/>
<path d="M7019 5163 c-19 -21 -52 -52 -73 -69 -25 -19 -36 -35 -32 -43 6 -9
12 -9 24 1 15 12 15 11 4 -4 -11 -14 -10 -23 7 -57 41 -79 70 -205 76 -328 11
-216 21 -243 89 -243 72 0 124 96 113 205 -6 59 -46 142 -66 137 -7 -1 -10 2
-6 7 3 6 -19 34 -50 64 -49 47 -56 58 -53 89 l2 35 73 1 c44 1 87 8 107 17 84
40 116 119 76 184 -12 18 -24 31 -27 28 -3 -4 2 -13 11 -22 9 -9 19 -27 22
-40 7 -28 -14 -98 -26 -90 -5 3 -17 -6 -26 -20 -9 -14 -25 -25 -36 -25 -19 0
-18 2 5 21 15 11 26 23 26 27 -4 23 3 33 16 28 8 -3 15 -1 15 3 0 22 -30 16
-53 -10 -25 -29 -25 -30 -4 -24 21 6 21 6 3 -9 -17 -14 -20 -14 -32 2 -19 24
-17 32 6 32 28 0 25 28 -5 42 -13 6 -22 15 -18 21 3 5 0 13 -7 17 -8 5 -9 10
-2 14 6 3 13 -3 17 -14 7 -22 39 -27 51 -8 5 8 2 9 -10 5 -12 -5 -24 0 -36 15
-15 19 -20 20 -34 9 -9 -7 -14 -17 -11 -21 7 -11 -22 -33 -37 -27 -8 3 -4 9
12 16 18 9 20 11 5 8 -20 -4 -49 16 -38 26 3 3 -4 3 -16 0 -12 -3 -21 -10 -21
-15 0 -5 4 -6 10 -3 6 3 7 -1 3 -10 -4 -12 -8 -13 -13 -5 -6 9 -9 9 -14 1 -4
-6 -12 -9 -17 -6 -5 4 -9 0 -9 -8 0 -8 -8 -21 -17 -28 -16 -13 -17 -12 -5 2 7
9 11 23 10 30 -2 8 5 14 14 14 9 0 20 4 24 8 4 4 2 7 -5 7 -8 0 -6 8 5 25 23
36 13 31 -27 -12z m12 -76 c-10 -9 -11 -8 -5 6 3 10 9 15 12 12 3 -3 0 -11 -7
-18z m174 -107 c3 -6 -1 -7 -9 -4 -18 7 -21 14 -7 14 6 0 13 -4 16 -10z"/>
<path d="M7120 5185 c-16 -19 -5 -34 20 -28 22 6 22 6 14 27 -8 20 -18 20 -34
1z"/>
<path d="M7400 5165 c0 -5 5 -17 10 -25 5 -8 10 -10 10 -5 0 6 -5 17 -10 25
-5 8 -10 11 -10 5z"/>
<path d="M7505 5135 c3 -16 10 -59 16 -94 11 -63 9 -96 -9 -161 l-10 -35 -1
35 c-2 33 -3 34 -16 16 -20 -27 -25 -18 -16 31 5 24 4 40 0 37 -5 -3 -9 11 -9
30 0 19 -4 37 -9 41 -6 3 -9 -35 -9 -92 1 -112 -14 -194 -48 -272 -13 -29 -21
-58 -17 -65 3 -6 3 -8 -2 -4 -10 10 -48 -50 -39 -63 3 -5 1 -8 -4 -7 -10 3
-109 -101 -111 -117 0 -5 -4 -10 -9 -10 -4 0 -35 -22 -70 -49 l-64 -48 39 -24
c21 -13 43 -24 49 -24 20 0 105 71 98 82 -4 6 -3 8 3 5 13 -8 76 57 66 68 -5
4 -3 5 3 2 7 -4 23 8 38 27 28 38 33 51 14 40 -8 -4 -10 -3 -5 2 5 5 14 9 20
9 7 0 11 8 11 18 -1 9 2 14 7 12 12 -8 51 73 43 87 -4 6 -3 8 4 4 13 -8 26 29
16 45 -4 7 -3 9 4 5 6 -4 17 16 29 51 24 79 25 336 0 403 -11 31 -15 36 -12
15z m-78 -497 c-3 -8 -6 -5 -6 6 -1 11 2 17 5 13 3 -3 4 -12 1 -19z m-78 -182
c9 -11 9 -16 -1 -22 -7 -4 -10 -4 -6 1 4 4 3 14 -3 22 -6 7 -9 13 -6 13 2 0
10 -6 16 -14z m-112 -121 c0 -8 -4 -12 -9 -9 -5 3 -6 10 -3 15 9 13 12 11 12
-6z"/>
<path d="M7276 5131 c-4 -5 -2 -12 3 -15 5 -4 12 -2 15 3 4 5 2 12 -3 15 -5 4
-12 2 -15 -3z"/>
<path d="M7431 5064 c0 -11 3 -14 6 -6 3 7 2 16 -1 19 -3 4 -6 -2 -5 -13z"/>
<path d="M7488 4388 c-74 -74 -181 -137 -261 -154 -34 -7 -99 -13 -145 -14
-72 0 -94 4 -152 30 -38 17 -79 30 -92 30 -18 -1 -15 -4 14 -14 20 -7 56 -24
80 -38 23 -13 59 -31 78 -38 19 -7 56 -29 82 -47 86 -62 144 -65 198 -11 l30
30 40 -16 c50 -20 83 -20 119 -2 50 26 65 61 69 166 6 145 7 145 -60 78z m-8
-153 c-18 -22 -78 -38 -116 -31 -49 10 -42 22 16 29 27 3 62 13 77 21 30 15
43 5 23 -19z m-200 -41 c0 -11 -71 -34 -105 -34 -47 0 -45 20 3 21 20 0 46 4
57 9 24 10 45 12 45 4z"/>
<path d="M6765 4186 c-55 -26 -83 -47 -201 -149 -110 -96 -174 -126 -174 -82
0 7 21 35 48 61 48 50 32 43 -25 -10 -38 -35 -45 -81 -14 -91 30 -9 78 16 176
94 106 84 185 125 275 141 36 6 76 16 90 22 l25 10 -25 14 c-40 21 -118 17
-175 -10z"/>
<path d="M5983 3445 c-18 -8 -44 -25 -58 -39 -88 -88 76 -177 194 -105 121 73
-1 203 -136 144z"/>
<path d="M2563 8357 l-161 -152 31 -33 31 -32 46 43 c95 90 68 99 230 -85 79
-90 145 -165 146 -167 5 -6 73 53 73 64 0 6 -64 82 -144 170 l-144 160 55 53
c30 30 54 59 54 66 0 7 -12 24 -27 38 l-28 27 -162 -152z"/>
<path d="M7590 8249 c-85 -38 -201 -90 -257 -116 -57 -25 -103 -48 -103 -52 1
-11 60 -71 70 -71 6 0 34 12 62 26 l51 26 86 -86 85 -86 -23 -68 -24 -69 34
-31 c19 -17 37 -32 40 -32 6 0 39 82 162 407 30 77 52 145 48 150 -4 4 -22 22
-41 40 l-35 32 -155 -70z m82 -156 c-25 -60 -46 -109 -47 -111 -1 -1 -29 26
-63 60 -34 34 -61 62 -60 63 24 12 205 95 209 95 4 0 -14 -48 -39 -107z"/>
<path d="M2262 8051 l-32 -40 112 -98 c62 -54 155 -134 206 -177 l93 -79 34
33 c43 41 56 25 -170 218 -93 80 -179 154 -191 164 -20 18 -21 18 -52 -21z"/>
<path d="M8055 7854 c-27 -19 -117 -78 -200 -130 -82 -53 -159 -102 -169 -109
-20 -15 -22 -11 40 -94 2 -1 37 21 79 49 41 29 77 51 78 49 26 -34 47 -70 47
-81 0 -8 -18 -54 -40 -103 -22 -50 -40 -96 -40 -104 0 -15 52 -100 62 -101 5
0 43 90 88 213 10 27 10 27 39 12 37 -19 113 -19 149 -1 90 47 120 147 71 237
-27 52 -134 198 -144 198 -5 0 -32 -16 -60 -35z m84 -146 c63 -97 51 -161 -33
-175 -33 -5 -40 -2 -74 34 -20 22 -45 54 -55 71 l-17 31 62 45 c35 25 68 45
73 46 6 0 25 -24 44 -52z"/>
<path d="M1870 7497 c-14 -23 -27 -45 -28 -50 -2 -4 17 -47 42 -96 25 -49 46
-94 46 -99 0 -5 -28 -12 -62 -16 -138 -15 -135 -14 -157 -67 -12 -26 -21 -49
-21 -51 0 -2 60 4 133 14 72 9 139 17 148 18 11 0 39 -47 87 -150 40 -82 74
-150 76 -150 2 0 18 23 34 51 l30 52 -30 50 c-61 103 -80 149 -67 157 6 5 57
11 113 15 56 4 107 12 114 18 15 12 55 87 50 92 -3 4 -150 -8 -275 -21 l-63
-6 -67 141 c-36 77 -69 141 -72 141 -3 0 -17 -19 -31 -43z"/>
<path d="M8393 7394 l-32 -13 32 -71 c19 -44 27 -74 21 -79 -5 -5 -97 -48
-203 -95 -107 -48 -197 -88 -199 -90 -3 -3 33 -82 42 -93 1 -2 88 37 192 86
105 49 199 91 208 93 14 2 25 -15 50 -73 l31 -77 40 20 c22 11 41 22 43 23 7
6 -172 385 -182 384 -6 0 -25 -7 -43 -15z"/>
<path d="M1581 6858 c-10 -24 -16 -46 -12 -50 3 -3 44 -20 91 -36 47 -17 151
-56 233 -86 81 -31 151 -56 156 -56 5 0 16 21 25 46 l15 45 -32 14 c-44 18
-446 165 -453 165 -3 0 -13 -19 -23 -42z"/>
<path d="M8490 6849 c-74 -30 -97 -91 -79 -209 10 -70 9 -83 -5 -105 -12 -19
-25 -25 -50 -25 -87 0 -130 154 -59 210 22 17 25 24 15 44 -6 13 -24 28 -41
34 -28 10 -33 8 -60 -25 -76 -92 -46 -270 58 -340 45 -31 132 -32 179 -3 52
32 65 76 57 191 -7 90 -6 98 14 118 28 28 57 27 85 -4 38 -41 41 -118 6 -161
-17 -19 -5 -32 35 -40 45 -8 60 5 75 64 36 154 -100 303 -230 251z"/>
<path d="M1488 6546 l-15 -65 134 -97 134 -97 -30 -13 c-16 -7 -83 -27 -148
-44 -65 -17 -125 -33 -134 -36 -12 -3 -19 -21 -24 -60 -4 -31 -5 -58 -2 -60 9
-9 502 -82 508 -76 9 9 16 92 9 92 -35 2 -344 50 -348 54 -3 3 4 6 16 6 25 0
168 44 235 72 26 11 47 27 47 35 0 21 -81 102 -159 158 -38 28 -70 52 -70 55
-1 3 68 -11 152 -32 83 -21 162 -40 173 -43 19 -4 23 2 33 41 7 26 10 48 9 50
-2 1 -110 28 -240 58 -130 31 -243 58 -250 61 -10 4 -18 -12 -30 -59z"/>
<path d="M8552 6288 c-20 -20 -14 -51 19 -102 16 -27 28 -50 27 -52 -2 -2 -26
3 -53 11 -26 8 -60 15 -75 15 -51 0 -68 -48 -26 -75 21 -14 29 -14 87 4 35 11
65 19 67 17 2 -2 -6 -23 -18 -46 -28 -56 -25 -114 8 -118 44 -7 55 15 47 93
l-6 70 43 -41 c24 -23 51 -44 61 -48 25 -8 57 10 57 34 0 30 -27 48 -92 61
-70 14 -74 8 39 54 51 21 63 49 35 77 -28 28 -56 16 -99 -43 -19 -27 -38 -49
-42 -49 -5 0 -6 21 -4 48 2 27 -2 57 -9 72 -15 28 -47 37 -66 18z"/>
<path d="M1542 5718 c-20 -20 -13 -61 18 -108 16 -24 28 -46 26 -47 -2 -2 -33
5 -70 14 l-68 18 -19 -23 c-14 -19 -16 -28 -8 -43 16 -32 39 -34 100 -12 32
12 60 19 62 16 3 -2 -3 -23 -14 -46 -25 -56 -25 -103 0 -117 46 -24 67 12 56
96 -3 30 -3 54 1 54 3 0 24 -16 46 -36 31 -27 46 -34 71 -32 21 2 33 9 35 21
6 30 -27 56 -80 63 -26 4 -51 11 -54 15 -5 9 4 13 74 40 59 21 78 79 31 94
-27 9 -53 -9 -90 -60 -18 -25 -37 -45 -42 -45 -5 0 -6 21 -2 50 5 39 3 56 -9
75 -18 27 -45 32 -64 13z"/>
<path d="M8552 5640 c-59 -36 -78 -118 -42 -177 39 -64 111 -88 175 -57 49 23
75 67 75 125 0 103 -117 164 -208 109z"/>
<path d="M1638 4893 c-69 -43 -67 -162 4 -199 82 -43 178 17 178 111 0 29 -8
45 -34 71 -28 28 -41 34 -77 34 -24 0 -56 -8 -71 -17z"/>
<path d="M8494 4860 c-64 -26 -85 -123 -39 -178 84 -100 242 0 192 120 -22 54
-96 81 -153 58z"/>
<path d="M1754 4521 c-37 -22 -59 -77 -49 -121 3 -16 23 -43 42 -61 32 -27 42
-31 80 -26 79 9 126 76 104 148 -22 72 -109 101 -177 60z"/>
<path d="M8363 4480 c-40 -24 -53 -48 -53 -99 0 -31 7 -49 29 -73 27 -30 35
-33 86 -33 51 0 59 3 86 33 88 98 -34 242 -148 172z"/>
<path d="M1898 4170 c-88 -68 -42 -200 69 -200 38 0 50 5 79 34 28 28 34 42
34 76 0 34 -6 48 -34 76 -29 29 -41 34 -79 34 -29 0 -53 -7 -69 -20z"/>
<path d="M8184 4106 c-28 -28 -34 -42 -34 -76 0 -35 6 -48 35 -77 33 -33 38
-35 87 -31 42 4 57 11 80 37 42 46 39 102 -6 147 -29 29 -41 34 -81 34 -40 0
-52 -5 -81 -34z"/>
<path d="M8021 3793 c-65 -33 -78 -124 -25 -177 73 -73 194 -23 194 80 0 87
-89 138 -169 97z"/>
<path d="M7813 3455 c-74 -32 -88 -122 -29 -181 39 -39 89 -45 137 -17 29 17
59 67 59 98 0 34 -32 84 -65 99 -40 19 -60 20 -102 1z"/>
<path d="M2813 3080 c-286 -76 -491 -234 -604 -466 -74 -153 -104 -349 -59
-394 23 -23 49 -26 74 -7 14 10 20 35 27 103 5 54 19 122 37 171 84 239 258
390 543 472 101 30 129 47 129 81 0 24 -22 48 -50 54 -14 3 -57 -3 -97 -14z"/>
<path d="M7292 3074 c-25 -17 -30 -65 -8 -83 8 -7 43 -20 78 -30 165 -48 265
-107 379 -220 133 -133 185 -255 197 -469 7 -118 13 -132 58 -132 58 0 77 100
50 257 -38 220 -151 400 -331 529 -74 53 -214 121 -297 144 -87 24 -97 24
-126 4z"/>
<path d="M2773 2688 c-152 -253 -281 -464 -428 -701 -48 -77 -48 -78 -29 -96
36 -35 187 -131 204 -131 17 0 94 121 381 598 l74 124 5 -364 c3 -200 8 -367
12 -373 3 -5 22 -18 41 -29 l35 -18 301 201 c165 110 303 201 305 201 3 0 -80
-171 -184 -380 -105 -209 -190 -385 -190 -390 0 -8 216 -120 232 -120 3 0 18
20 32 45 49 83 526 1045 526 1060 0 14 -225 135 -251 135 -7 0 -143 -83 -303
-184 -160 -100 -302 -189 -315 -196 l-24 -12 6 379 c7 354 6 381 -10 395 -33
27 -221 138 -236 138 -8 0 -88 -123 -184 -282z"/>
<path d="M6801 2700 c-78 -51 -91 -63 -91 -87 0 -24 66 -811 101 -1207 8 -88
17 -140 25 -143 6 -2 59 19 117 46 57 28 109 51 115 51 30 0 32 28 10 178 -12
84 -19 154 -17 156 5 4 449 289 466 300 8 4 60 -29 132 -84 66 -49 127 -90
134 -90 19 0 197 168 197 185 0 16 22 1 -295 217 -137 94 -329 225 -425 291
-336 232 -358 247 -368 247 -5 0 -51 -27 -101 -60z m393 -439 c98 -73 177
-134 175 -135 -16 -13 -342 -206 -345 -204 -1 2 -17 107 -33 233 -17 127 -34
243 -37 259 l-6 29 33 -25 c19 -14 114 -85 213 -157z"/>
<path d="M6160 2342 l-125 -27 -28 -260 c-15 -143 -35 -347 -45 -453 l-17
-193 -120 258 c-65 142 -152 327 -192 412 l-73 153 -93 -7 c-50 -4 -101 -11
-112 -15 -18 -7 -34 -64 -120 -438 -55 -237 -101 -429 -103 -427 -2 1 -61 191
-132 420 -70 229 -131 420 -135 423 -13 13 -265 14 -280 2 -12 -10 -6 -33 34
-148 27 -75 99 -279 161 -452 61 -173 136 -389 167 -480 30 -91 58 -169 62
-173 7 -7 191 6 252 19 25 5 28 14 124 417 54 227 100 416 103 421 7 12 6 14
198 -398 95 -202 175 -371 178 -373 2 -3 64 3 136 13 115 16 133 21 140 39 5
11 20 110 34 220 15 110 53 393 85 630 33 236 57 433 55 437 -7 11 -10 10
-154 -20z"/>
<path d="M4225 2298 c-2 -7 -40 -200 -85 -428 -44 -228 -98 -498 -119 -600
-35 -167 -37 -186 -23 -197 9 -7 23 -13 31 -13 9 0 62 -11 119 -23 57 -13 105
-20 108 -15 3 5 30 131 59 281 145 733 184 942 177 949 -7 7 -229 58 -252 58
-6 0 -12 -6 -15 -12z"/>
<path d="M2063 1831 l-32 -38 37 -35 c140 -131 454 -354 682 -485 206 -119
502 -258 527 -249 8 3 12 2 9 -3 -11 -17 25 -21 52 -6 15 8 21 14 14 15 -7 0
-20 6 -27 14 -12 11 -10 15 13 25 24 10 25 10 9 -3 -16 -13 -16 -14 -1 -20 9
-4 19 -4 22 -1 3 3 -1 5 -8 5 -10 0 -11 3 -4 10 7 7 29 4 69 -10 32 -11 60
-19 61 -17 8 7 -188 77 -198 71 -6 -4 -8 -3 -5 3 4 6 -16 20 -46 33 -336 144
-749 402 -1049 657 -47 40 -88 73 -90 73 -1 0 -17 -18 -35 -39z m1257 -811 c0
-5 -5 -10 -11 -10 -5 0 -7 5 -4 10 3 6 8 10 11 10 2 0 4 -4 4 -10z"/>
<path d="M8059 1792 c-443 -369 -920 -632 -1482 -817 -86 -28 -154 -55 -150
-60 5 -4 2 -5 -4 -1 -7 4 -85 -11 -174 -34 -88 -22 -169 -40 -180 -40 -10 0
-19 -4 -19 -9 0 -6 12 -6 32 0 40 11 40 11 34 0 -3 -5 0 -9 7 -8 6 0 28 -1 47
-2 29 -2 31 -4 15 -10 -11 -5 -24 -6 -28 -4 -5 3 -8 -1 -6 -8 4 -31 -2 -39
-28 -38 -25 0 -26 1 -8 9 16 7 13 8 -13 7 -28 -2 -30 -4 -15 -14 15 -12 13
-13 -13 -15 -16 -1 -40 -1 -53 0 -17 1 -21 -2 -14 -9 13 -13 109 5 334 62 652
165 1281 485 1797 913 l93 77 -31 40 c-18 21 -35 39 -40 39 -4 0 -50 -35 -101
-78z m-1611 -896 c-10 -7 -15 -16 -11 -19 3 -4 2 -7 -4 -7 -22 0 -22 15 -1 27
30 16 38 16 16 -1z m-110 -42 c-36 -12 -49 -34 -21 -35 12 0 9 -5 -12 -14 -16
-7 -36 -10 -45 -7 -11 5 -9 8 10 13 22 7 21 8 -10 8 -19 0 -55 3 -78 7 l-44 7
39 13 c21 8 48 14 60 14 12 0 25 5 28 10 3 6 14 10 23 10 36 0 -15 -32 -53
-33 -34 -1 -35 -2 -15 -11 17 -8 31 -5 59 10 20 11 35 25 34 31 -2 8 6 8 28 0
l30 -12 -33 -11z m-110 -60 c15 -16 14 -17 -15 -12 -18 2 -30 1 -27 -4 3 -4
-2 -8 -10 -8 -20 0 -10 27 12 33 10 3 18 5 20 6 2 0 11 -6 20 -15z"/>
<path d="M3510 1020 c8 -5 22 -9 30 -9 10 0 8 3 -5 9 -27 12 -43 12 -25 0z"/>
<path d="M3336 1001 c-9 -13 76 -43 89 -30 7 7 4 8 -9 3 -13 -5 -17 -4 -13 3
4 6 1 11 -6 10 -6 0 -21 1 -32 2 l-20 2 20 9 c19 8 19 9 -2 9 -12 1 -24 -3
-27 -8z"/>
<path d="M6008 823 c6 -2 18 -2 25 0 6 3 1 5 -13 5 -14 0 -19 -2 -12 -5z"/>
<path d="M5958 813 c6 -2 18 -2 25 0 6 3 1 5 -13 5 -14 0 -19 -2 -12 -5z"/>
<path d="M5908 803 c6 -2 18 -2 25 0 6 3 1 5 -13 5 -14 0 -19 -2 -12 -5z"/>
<path d="M5848 793 c6 -2 18 -2 25 0 6 3 1 5 -13 5 -14 0 -19 -2 -12 -5z"/>
<path d="M5773 783 c9 -2 23 -2 30 0 6 3 -1 5 -18 5 -16 0 -22 -2 -12 -5z"/>
<path d="M5698 773 c7 -3 16 -2 19 1 4 3 -2 6 -13 5 -11 0 -14 -3 -6 -6z"/>
<path d="M5958 723 c6 -2 18 -2 25 0 6 3 1 5 -13 5 -14 0 -19 -2 -12 -5z"/>
<path d="M5898 713 c6 -2 18 -2 25 0 6 3 1 5 -13 5 -14 0 -19 -2 -12 -5z"/>
<path d="M5848 703 c6 -2 18 -2 25 0 6 3 1 5 -13 5 -14 0 -19 -2 -12 -5z"/>
<path d="M5778 693 c6 -2 18 -2 25 0 6 3 1 5 -13 5 -14 0 -19 -2 -12 -5z"/>
<path d="M5528 663 c7 -3 16 -2 19 1 4 3 -2 6 -13 5 -11 0 -14 -3 -6 -6z"/>
</g>
</svg>
